<?xml version="1.0" encoding="UTF-8" standalone="no"?><!DOCTYPE svg PUBLIC "-//W3C//DTD SVG 1.1//EN" "http://www.w3.org/Graphics/SVG/1.1/DTD/svg11.dtd"><svg width="100%" height="100%" viewBox="0 0 456 456" version="1.1" xmlns="http://www.w3.org/2000/svg" xmlns:xlink="http://www.w3.org/1999/xlink" xml:space="preserve" xmlns:serif="http://www.serif.com/" style="fill-rule:evenodd;clip-rule:evenodd;stroke-linejoin:round;stroke-miterlimit:2;"><rect id="Logo" x="0" y="0" width="455.111" height="455.111" style="fill:none;"/><g id="Logo1" serif:id="Logo"><path d="M216.444,33.161c6.876,-3.97 15.347,-3.97 22.223,-0c31.362,18.107 120.322,69.468 151.684,87.575c6.875,3.969 11.111,11.305 11.111,19.245l-0,175.149c-0,7.94 -4.236,15.276 -11.111,19.245c-31.362,18.107 -120.322,69.468 -151.684,87.575c-6.876,3.97 -15.347,3.97 -22.223,0c-31.362,-18.107 -120.322,-69.468 -151.684,-87.575c-6.875,-3.969 -11.111,-11.305 -11.111,-19.245l0,-175.149c0,-7.94 4.236,-15.276 11.111,-19.245c31.362,-18.107 120.322,-69.468 151.684,-87.575Z" style="fill:#0284c7;"/><path d="M89.563,290.273c-2.475,6.071 -0.169,13.04 5.439,16.437c27.006,16.357 102.393,62.019 125.639,76.099c4.25,2.574 9.578,2.571 13.825,-0.006c23.01,-13.964 97.127,-58.944 124.667,-75.658c5.906,-3.584 8.096,-11.085 5.048,-17.283c-10.74,-21.838 -34.908,-70.978 -47.964,-97.527c-1.961,-3.987 -5.78,-6.736 -10.183,-7.33c-4.403,-0.594 -8.813,1.045 -11.761,4.37c-8.727,9.847 -19.825,22.37 -26.883,30.333c-1.732,1.955 -4.236,3.049 -6.848,2.991c-2.611,-0.057 -5.065,-1.261 -6.709,-3.29c-15.533,-19.163 -54.671,-67.45 -75.885,-93.623c-2.968,-3.661 -7.648,-5.484 -12.311,-4.793c-4.663,0.69 -8.614,3.791 -10.394,8.156c-16.691,40.946 -53.185,130.471 -65.68,161.124Z" style="fill:#24ceac;"/><circle cx="272" cy="133.43" r="24.577" style="fill:#f8b846;"/></g></svg>